<?xml version="1.0" encoding="UTF-8"?>
<svg version="1.1" xmlns="http://www.w3.org/2000/svg" width="1900" height="1200">
<path d="M0 0 C18.22672968 9.89047347 33.560178 25.08116457 43.4375 43.25 C46.24804014 48.20677079 49.13380333 51.11951199 53.75 54.38671875 C72.85565455 68.08573842 83.17033711 92.56355179 88.640625 114.578125 C90.58719345 127.69630366 88.28951283 140.32232199 85 153 C84.81759766 153.71800781 84.63519531 154.43601563 84.44726562 155.17578125 C80.27671711 171.18483414 74.11106455 186.6389247 68.33984375 202.12109375 C68.05472931 202.89086044 67.76961487 203.66062714 67.4758606 204.45372009 C66.19266214 207.89973817 64.88361571 211.32162713 63.44042969 214.70410156 C60.54453718 221.62307884 59.6236975 226.47231118 60.375 233.875 C61.00289264 247.81055905 55.66662559 259.93293729 50.68212891 272.65087891 C47.93586733 279.69432445 45.41033949 286.81970967 42.85629272 293.93450928 C42.02001294 296.25692253 41.17595079 298.57635278 40.3293457 300.89501953 C37.90959547 307.53912863 35.52692852 314.16861195 33.60400391 320.97802734 C32.95947976 323.13564618 32.18788152 325.21291831 31.375 327.3125 C29.58394022 332.11579668 28.87209411 335.41842164 29.41625977 340.48779297 C29.50972687 341.38254333 29.60319397 342.2772937 29.69949341 343.19915771 C29.8924861 344.99792722 30.08602257 346.79663851 30.28024292 348.59527588 C34.28390898 386.68023281 27.83034788 414.81487144 11.98632812 449.44677734 C8.82934692 456.35329329 5.74285289 463.28351342 2.765625 470.26953125 C2.28647644 471.33846115 1.80732788 472.40739105 1.31365967 473.50871277 C-2.93363013 483.6176453 -2.94811131 493.27631676 -1 504 C2.0814496 527.01320181 -1.32938058 543.03763746 -11.17427063 563.86439514 C-14.46173399 570.84697993 -17.13496266 577.9904257 -19.75 585.25 C-20.15516846 586.35641846 -20.56033691 587.46283691 -20.9777832 588.6027832 C-21.70049139 590.58286331 -22.41592177 592.56562506 -23.12182617 594.55175781 C-23.8077912 596.46414518 -24.53804952 598.36066017 -25.28515625 600.25 C-26.21594948 603.83075647 -26.00263325 607.11048663 -25.6875 610.75 C-25.63988525 611.49096924 -25.59227051 612.23193848 -25.54321289 612.99536133 C-25.29307072 616.80032396 -24.94033957 620.56209115 -24.421875 624.33984375 C-23.04490674 635.70592751 -25.63303901 643.8487269 -29.8515625 654.37890625 C-32.04228986 659.90582045 -33.62536318 665.4708193 -35 671.25 C-35.20705566 672.08249268 -35.41411133 672.91498535 -35.62744141 673.77270508 C-36.91943789 679.37942914 -37.93178256 685.26653154 -37 691 C-35.57186523 693.25785163 -35.57186523 693.25785163 -34 695 C-22.21226948 694.49839445 -14.02330312 684.73110392 -6 677 C-5.45230957 676.47422363 -4.90461914 675.94844727 -4.34033203 675.40673828 C2.19691753 669.09746604 8.31229652 662.6649572 13.96484375 655.53515625 C15.8620885 653.17179379 17.83383592 650.92659514 19.875 648.6875 C24.67010975 643.34491709 29.04091479 637.68264745 33.43457031 632.01123047 C35.08899299 629.88566372 36.75812587 627.7722664 38.4296875 625.66015625 C45.44953975 616.76364289 52.15408093 607.74310669 58.44970703 598.3203125 C60.20838494 595.68811174 61.97749697 593.06304573 63.74609375 590.4375 C67.18122258 585.32714622 70.58398797 580.19612148 73.97460938 575.05615234 C75.93012953 572.10542895 77.9091869 569.17163608 79.890625 566.23828125 C86.56746873 556.21908141 91.88771449 546.65299437 95.5703125 535.1640625 C97.92618607 527.93743077 101.78228946 521.54193172 105.6875 515.0625 C109.11714321 509.31308335 112.36078363 503.50771823 115.4375 497.5625 C129.95575313 469.70744783 129.95575313 469.70744783 138 463 C138.66 463 139.32 463 140 463 C139.97607178 462.42419189 139.95214355 461.84838379 139.92749023 461.25512695 C139.72078675 451.80135082 140.91511254 442.55124664 142.0625 433.1875 C142.17126465 432.28604248 142.2800293 431.38458496 142.39208984 430.45581055 C145.79318591 402.37590988 149.73916946 374.29803328 155.4375 346.58544922 C156.97382414 338.85356286 157.65936133 331.19761149 158.18699646 323.34034729 C158.73589379 315.86444817 159.75645909 308.55860168 161.0859375 301.18359375 C161.30196625 299.98150772 161.517995 298.77942169 161.74057007 297.54090881 C164.40747685 283.19013783 168.01523814 269.07263205 171.625 254.9375 C175.76492651 238.70771227 179.8031718 222.62565559 182 206 C182.27703372 204.13608721 182.55748314 202.27267333 182.84375 200.41015625 C182.95428711 199.67579346 183.06482422 198.94143066 183.17871094 198.18481445 C183.28473633 197.48445068 183.39076172 196.78408691 183.5 196.0625 C183.61891602 195.27512451 183.73783203 194.48774902 183.86035156 193.67651367 C184.5523825 189.27362495 185.47761038 185.092356 186.75 180.8125 C187.93511185 176.39369131 187.90579124 173.01333039 187.359375 168.48828125 C186.28217767 156.07951068 188.54618119 143.70029582 190.22089386 131.42926788 C190.50252294 129.35643074 190.77875974 127.28294069 191.05340576 125.20916748 C204.62784207 22.8615355 204.62784207 22.8615355 224.875 4.375 C232.03803964 1.22326256 238.57253355 3.02731207 245.69921875 5.6171875 C267.47040379 14.73789697 287.07060672 30.41311014 299 51 C299.13921875 51.74121094 299.2784375 52.48242188 299.421875 53.24609375 C299.70804688 54.11427734 299.70804688 54.11427734 300 55 C301.65112265 55.70428418 303.32146707 56.3638008 305 57 C325.01572805 73.05221755 342.79822491 96.81405377 346 123 C348.00471903 147.74714265 340.32731184 170.71410746 333 194 C332.41918559 195.85934837 331.83844697 197.71872043 331.2578125 199.578125 C331.00185303 200.39240967 330.74589355 201.20669434 330.48217773 202.0456543 C329.999848 203.58013511 329.52012657 205.11543859 329.04321289 206.65161133 C327.95555375 210.12463013 326.81059993 213.54244506 325.48828125 216.93359375 C322.91306331 223.78927627 321.77378462 229.19569781 322.48423767 236.46986389 C323.65379227 248.46389238 321.81724375 258.02529679 317.88912964 269.31851196 C316.90277613 272.16262496 315.97008158 275.02022474 315.04711914 277.88549805 C312.11731918 286.9278562 309.03911712 295.91368169 305.87094116 304.87501526 C297.84035694 327.71812528 292.94266341 345.57963182 297.43261719 369.65576172 C298.27394339 374.61466291 298.51944597 379.54229325 298.6875 384.5625 C298.72238525 385.31660156 298.75727051 386.07070313 298.79321289 386.84765625 C298.85713527 388.36443576 298.89986186 389.88221759 298.92431641 391.40014648 C298.9797334 393.30380961 299.11292462 395.20563639 299.29052734 397.10180664 C299.99273014 408.72189715 296.37740964 418.35499139 292.41741943 429.13415527 C291.23130402 432.36340054 290.07553164 435.60219792 288.92626953 438.84472656 C285.71044075 447.8871827 282.42051784 456.90141571 279.06384277 465.89250183 C277.91824903 468.96865259 276.788746 472.05059153 275.66052246 475.13314819 C274.90010072 477.18235776 274.11035603 479.21834044 273.31738281 481.25512695 C270.18779047 489.55995526 269.50728795 496.23617767 271 505 C271.23553589 506.39255005 271.23553589 506.39255005 271.47583008 507.81323242 C271.80194578 509.62323157 272.13798149 511.43147131 272.48388672 513.23779297 C277.16804301 538.30711383 270.93869446 556.65571606 261.8140564 579.77922058 C259.11925572 586.61109738 256.70780032 593.4728275 254.5625 600.5 C254.28728516 601.35126465 254.01207031 602.2025293 253.72851562 603.07958984 C250.56692306 613.50389741 252.31613113 623.41342411 254.02148438 633.96484375 C255.39215638 643.08140639 254.16922859 650.08280309 251.1875 658.75 C248.92888632 665.61921162 247.06668116 672.47552012 245.625 679.5625 C245.45766357 680.35817383 245.29032715 681.15384766 245.11791992 681.97363281 C243.77109114 688.92584854 243.02497981 696.10908958 245 703 C250.1165337 704.39623719 252.55685707 703.35232836 257.11328125 700.9140625 C265.90732257 695.08310141 273.29021603 687.07160059 280 679 C281.36504237 677.44024133 282.7300908 675.88048796 284.09521484 674.32080078 C291.46642648 665.84849529 298.2968081 657.00601677 305 648 C305.50047852 647.3311377 306.00095703 646.66227539 306.51660156 645.97314453 C323.42459686 623.2907422 338.80677305 599.45948975 353 575 C353.61053223 573.95569824 354.22106445 572.91139648 354.85009766 571.83544922 C356.66163825 568.7301552 358.45883992 565.61708704 360.25 562.5 C360.7874585 561.57453369 361.32491699 560.64906738 361.87866211 559.69555664 C366.79372564 551.03447344 369.24613356 542.35002725 371.64453125 532.72265625 C372.76378618 529.64873709 373.85232695 527.46333747 375.5546875 524.73046875 C378.48372612 520.02004735 380.98126219 515.1752892 383.42578125 510.203125 C383.82096451 509.40152451 384.21614777 508.59992401 384.62330627 507.77403259 C386.26656314 504.43333696 387.90380766 501.08978551 389.53295898 497.7421875 C404.66999171 466.69560721 404.66999171 466.69560721 414.125 462.625 C415.26195312 462.10164063 416.39890625 461.57828125 417.5703125 461.0390625 C421.28263562 459.91437235 424.14276955 459.66938025 428 460 C433.53846154 463.07692308 433.53846154 463.07692308 435 466 C437.03364772 483.28600559 423.6722352 504.17218089 415.00683594 518.39819336 C412.5306292 522.58120589 411.13501654 526.64879227 409.82275391 531.31958008 C408.31620452 536.22771233 406.20692308 540.87584075 404.125 545.5625 C403.64522705 546.6445874 403.1654541 547.7266748 402.67114258 548.84155273 C393.91147416 568.31952946 383.57554967 586.90151765 372.64501953 605.23193359 C371.13217279 607.77759348 369.63892025 610.33347254 368.15234375 612.89453125 C362.05336177 623.3285845 355.50378655 633.43975183 348.8125 643.5 C348.39256775 644.1330304 347.9726355 644.76606079 347.53997803 645.41827393 C342.5755617 652.88833725 337.44415325 660.15499492 332.01635742 667.29736328 C329.26037281 670.99136373 326.74852083 674.8171362 324.25 678.6875 C290.93932122 729.34300182 290.93932122 729.34300182 270.3125 734.3125 C267.95169754 734.78293413 266.03694431 735.00279973 263.62890625 734.8203125 C259.94566477 735.07206452 257.75830558 736.63796382 254.625 738.5625 C236.87745575 749.14422453 219.62349155 756.76749604 198.66796875 752.00390625 C174.41170537 745.36507804 157.37635892 727.65656435 144.90234375 706.5859375 C133.48583414 685.69413919 127.9612314 662.28460098 124 639 C123.86577637 638.21431641 123.73155273 637.42863281 123.59326172 636.61914062 C119.7171125 612.43545861 121.29332122 586.40229429 123.8125 562.16503906 C124.04871819 559.43745719 124.07223144 556.73576588 124 554 C123.69408936 554.54188965 123.38817871 555.0837793 123.07299805 555.64208984 C112.62722831 574.11424046 101.69564641 592.08650274 89.9375 609.75 C89.47241028 610.44951782 89.00732056 611.14903564 88.52813721 611.86975098 C77.48207489 628.46147883 65.89345111 644.60512014 53.50585938 660.2265625 C50.08648542 664.56058381 46.77717878 668.9684538 43.48925781 673.40283203 C37.06772971 682.05871343 30.48556024 690.45508252 23.32275391 698.50976562 C22.06262356 699.92944736 20.81798668 701.36283662 19.57421875 702.796875 C8.37249171 715.56568303 -2.92770862 725.70713931 -20.31640625 727.3046875 C-24.63033462 728.11898151 -27.85355183 729.68950537 -31.6875 731.75 C-33.09748826 732.47941128 -34.50896243 733.20595706 -35.921875 733.9296875 C-36.61216797 734.28385742 -37.30246094 734.63802734 -38.01367188 735.00292969 C-53.08925611 742.57036897 -68.66387839 746.04385906 -85.125 741 C-98.62837807 736.47695202 -109.06134229 729.05768355 -119 719 C-119.98226562 718.03320312 -119.98226562 718.03320312 -120.984375 717.046875 C-140.27102788 696.6985715 -147.91342058 666.20834344 -152.55664062 639.47167969 C-153.3046993 635.30133497 -154.15196003 631.15099044 -155 627 C-161.56640105 634.40212482 -165.89461689 642.09645037 -170 651 C-170.66 651 -171.32 651 -172 651 C-172.38828979 651.87833496 -172.38828979 651.87833496 -172.78442383 652.77441406 C-174.09221724 655.1688396 -175.49736101 656.71093329 -177.44921875 658.609375 C-178.13306641 659.28226563 -178.81691406 659.95515625 -179.52148438 660.6484375 C-180.23626953 661.34195313 -180.95105469 662.03546875 -181.6875 662.75 C-185.8128596 666.77213003 -189.87393508 670.78159223 -193.6328125 675.15234375 C-196.62126159 678.62491224 -199.78280826 681.75259391 -203.1875 684.8125 C-204.02051636 685.57216064 -204.02051636 685.57216064 -204.87036133 686.34716797 C-206.57652156 687.90226571 -208.2876859 689.45168358 -210 691 C-223.15841072 702.75737353 -223.15841072 702.75737353 -235.125 715.6875 C-237.80290956 718.90853488 -240.81960889 721.55084717 -244.0078125 724.2578125 C-245.87505735 725.89073643 -247.59262396 727.58929139 -249.3125 729.375 C-252.98195156 733.10256505 -256.98270826 736.34538826 -261.05859375 739.6171875 C-263.01105201 741.19886019 -264.94133146 742.80833127 -266.84765625 744.4453125 C-279.02364032 754.90059896 -292.28712964 763.00421023 -306.5 770.375 C-307.90131799 771.10918094 -309.30227293 771.84405522 -310.70288086 772.57958984 C-313.49209619 774.04267612 -316.28370888 775.50101198 -319.07763672 776.95507812 C-322.61216296 778.79539623 -326.13744132 780.65278018 -329.66015625 782.515625 C-356.2523197 796.55377865 -356.2523197 796.55377865 -370.5 801.375 C-371.2422583 801.62620605 -371.9845166 801.87741211 -372.74926758 802.13623047 C-404.34336746 812.38509185 -444.20738706 801.16327003 -473.07861328 786.98925781 C-477.61510654 784.65356903 -481.82768999 781.92594903 -486 779 C-486.84820312 778.42378906 -487.69640625 777.84757813 -488.5703125 777.25390625 C-496.13910646 772.05759358 -503.73706561 766.75737658 -510 760 C-510.51949219 759.48566406 -511.03898437 758.97132813 -511.57421875 758.44140625 C-524.51408255 744.91997554 -530.29733127 725.25784775 -532 707 C-531.938125 705.1746875 -531.938125 705.1746875 -531.875 703.3125 C-531.99986432 700.00359553 -532.57685063 698.35787999 -533.875 695.375 C-539.02204273 683.20763039 -537.80948572 672.01121335 -535.875 659.375 C-535.38559197 655.99456866 -534.90841892 652.61242614 -534.4296875 649.23046875 C-534.30696472 648.37731583 -534.18424194 647.5241629 -534.05780029 646.64515686 C-532.93166097 638.74473474 -532.07055683 630.82532321 -531.23452759 622.88998413 C-529.65586336 608.06450905 -527.38845072 593.53097958 -524 579 C-523.7328418 577.84886719 -523.46568359 576.69773437 -523.19042969 575.51171875 C-521.26197649 567.30422193 -519.20294428 559.13811753 -517 551 C-516.6589624 549.73881348 -516.6589624 549.73881348 -516.31103516 548.45214844 C-510.83258761 528.85438142 -501.01245773 510.2999972 -490.31445312 493.09008789 C-486.87117206 487.54378301 -483.82074976 481.88620788 -480.875 476.0625 C-477.02350838 468.54077242 -472.68896362 462.07785741 -467.29296875 455.57568359 C-465.46322025 453.34585036 -463.70721022 451.06123092 -461.94287109 448.77954102 C-441.05279717 421.84856315 -441.05279717 421.84856315 -428.2578125 412.6796875 C-421.22085789 407.44458286 -414.49850565 401.65241782 -408.375 395.375 C-403.58013428 390.47589807 -398.40868104 386.20445816 -393 382 C-392.43506836 381.55865723 -391.87013672 381.11731445 -391.28808594 380.66259766 C-382.3176763 373.7043109 -373.15463344 368.0543943 -363 363 C-362.00226563 362.48308594 -361.00453125 361.96617187 -359.9765625 361.43359375 C-351.51686573 357.07970289 -343.38594501 355.28669909 -333.9375 358 C-324.7006935 360.55129534 -317.09249395 358.38223392 -308.3203125 355.19140625 C-288.44455016 348.05951506 -262.37939858 354.48214191 -243.8359375 362.66015625 C-221.87751926 373.03445027 -207.35442991 388.05209476 -199 411 C-198.03488576 414.32481857 -197.43368706 417.56845115 -197 421 C-196.855625 421.90878906 -196.71125 422.81757813 -196.5625 423.75390625 C-193.47632142 447.89682413 -208.1141647 475.06477004 -222 494 C-222.45133301 494.6182666 -222.90266602 495.2365332 -223.36767578 495.87353516 C-231.31763423 506.729648 -239.57625361 517.29015571 -248.5625 527.3125 C-249.40941406 528.25738281 -250.25632812 529.20226562 -251.12890625 530.17578125 C-253.20421949 532.3381105 -255.39954182 534.08608161 -257.828125 535.83984375 C-262.43439399 539.19701023 -266.24649732 543.15113759 -270.1875 547.25 C-281.08210198 558.31547459 -293.06561278 566.79954094 -305.90917969 575.4621582 C-311.04323766 578.93553436 -316.07442571 582.46882771 -320.9375 586.3125 C-327.7011329 591.62365805 -334.77573288 596.3461147 -342 601 C-342.75651855 601.48791016 -343.51303711 601.97582031 -344.29248047 602.47851562 C-349.10947771 605.57508645 -353.95078904 608.62917262 -358.81933594 611.64404297 C-360.15813414 612.47652004 -361.49308022 613.31528052 -362.82128906 614.16455078 C-372.46757921 620.33077814 -382.73075295 624.15441857 -393.4609375 628.01953125 C-394.40678711 628.36064941 -395.35263672 628.70176758 -396.32714844 629.05322266 C-398.01136726 629.64980656 -399.7015684 630.23000136 -401.39941406 630.78662109 C-405.49059068 632.17306502 -408.01439295 633.0862472 -410 637 C-420.90906711 662.87195674 -423.38450064 691.9426386 -423.31567383 719.7512207 C-423.31243936 722.48882356 -423.3363737 725.22541452 -423.36132812 727.96289062 C-423.36359516 729.72395699 -423.3643074 731.48502622 -423.36328125 733.24609375 C-423.372491 734.05437119 -423.38170074 734.86264862 -423.39118958 735.69541931 C-423.35324295 740.30058081 -422.92982242 743.22934786 -420 747 C-409.08537439 755.84969644 -393.82252232 758.27620823 -380.24658203 757.23925781 C-373.63912298 756.53557276 -367.33924988 754.95286313 -361 753 C-360.2992334 752.78520996 -359.5984668 752.57041992 -358.87646484 752.34912109 C-315.72488262 738.6525438 -273.58312614 711.31932527 -240.68359375 680.5 C-238.39041542 678.36370577 -236.06336739 676.29297234 -233.6875 674.25 C-228.22624805 669.47562716 -223.44926197 664.76145446 -219.25 658.8125 C-211.90324512 648.44809573 -202.72260341 639.64774531 -193.65509033 630.80899048 C-184.36776489 621.72560906 -175.88987841 612.5159878 -168.35839844 601.89306641 C-166.06817655 598.70140924 -163.655527 595.60508912 -161.25 592.5 C-160.45078125 591.4584375 -159.6515625 590.416875 -158.828125 589.34375 C-157 587 -157 587 -156 586 C-155.62480138 583.36382188 -155.3057985 580.74003273 -155.01953125 578.09375 C-154.82732145 576.40055956 -154.6344197 574.70744757 -154.44091797 573.0144043 C-154.28837555 571.66758072 -154.28837555 571.66758072 -154.13275146 570.29354858 C-150.87225542 541.85229188 -145.72976615 514.43841165 -138.5647583 486.73373413 C-135.54363694 474.98763527 -133.00802389 463.56509522 -131.99487305 451.44897461 C-131.07970894 440.60440489 -129.36912541 429.92397928 -127.625 419.1875 C-127.39192642 417.75120239 -127.39192642 417.75120239 -127.15414429 416.28588867 C-126.38763222 411.5718021 -125.61568465 406.85863582 -124.84033203 402.14599609 C-124.10922478 397.69048091 -123.40680965 393.23128717 -122.71484375 388.76953125 C-120.07051553 371.94611363 -116.56845437 355.3894767 -112.76953125 338.796875 C-110.87210245 330.49506637 -109.08367965 322.2956735 -108.11621094 313.83032227 C-105.08123679 288.0452405 -97.60031108 263.65838255 -89.41894531 239.12329102 C-83.93965992 222.5789068 -79.78414232 205.89982556 -77 188.6875 C-75.71209108 181.05626165 -73.98843762 173.75281524 -71.3984375 166.4519043 C-69.84567103 161.79656368 -70.37174816 159.51631898 -72 155 C-71.74341937 152.65698444 -71.39293799 150.32403857 -71 148 C-70.76375126 146.4940064 -70.52880554 144.98780802 -70.29492188 143.48144531 C-49.63490257 14.03389534 -49.63490257 14.03389534 -27 -5 C-17.30016426 -8.23327858 -8.68378061 -4.25001091 0 0 Z M-266.03173828 443.43994141 C-268.07972614 445.02272705 -270.0758802 446.65345087 -272.0625 448.3125 C-273.06506836 449.12750977 -273.06506836 449.12750977 -274.08789062 449.95898438 C-278.09900197 453.26064745 -281.82143282 456.73997211 -285.45727539 460.44897461 C-287.28187171 462.28338835 -289.2040986 463.96466811 -291.1875 465.625 C-293.46769578 467.5813292 -295.24897163 469.31487589 -297.125 471.6875 C-299 474 -299 474 -301.859375 475.75 C-305.40947788 478.29335729 -306.92072867 480.56523875 -309.125 484.3125 C-312.3315059 489.56984656 -315.78274779 494.42670103 -319.6875 499.1875 C-336.05786641 519.26436446 -350.72285878 540.76322314 -364 563 C-364.80630859 564.30904297 -364.80630859 564.30904297 -365.62890625 565.64453125 C-370.84010088 574.05322997 -370.84010088 574.05322997 -375 583 C-374.67 583.66 -374.34 584.32 -374 585 C-365.5021354 580.59889913 -357.54576626 575.53570011 -349.625 570.1875 C-348.48464887 569.42341923 -347.34402448 568.65974613 -346.203125 567.89648438 C-343.36287226 565.99324367 -340.53052303 564.07869144 -337.70281982 562.15686035 C-336.55764791 561.37885438 -335.41151177 560.60226598 -334.26446533 559.82702637 C-327.60193097 555.31907324 -321.13393055 550.7372295 -315.125 545.375 C-314.526875 544.85421875 -313.92875 544.3334375 -313.3125 543.796875 C-309.03102525 540.03436689 -304.995837 536.06225314 -301 532 C-298.34344097 529.33529202 -295.67770678 526.68212221 -292.984375 524.0546875 C-286.17416225 517.38371508 -279.76084274 510.61949301 -274 503 C-273.53207031 502.38141113 -273.06414062 501.76282227 -272.58203125 501.12548828 C-261.85535219 486.81061099 -254.07923081 471.80613163 -248 455 C-247.66226563 454.11183594 -247.32453125 453.22367187 -246.9765625 452.30859375 C-246.25965331 450.03067261 -245.81768581 448.37967998 -246 446 C-247.83180972 442.52087938 -250.10950906 439.68344924 -253.87670898 438.3215332 C-258.40283347 437.63613526 -262.4692182 440.9150984 -266.03173828 443.43994141 Z M125 549 C126 551 126 551 126 551 Z " fill="#07BBB5" transform="translate(555,39)"/>
<path d="M0 0 C9.77075849 8.24407748 16.18362064 19.30544899 18.375 31.96484375 C22.07849257 87.39974224 -1.93226419 142.0351591 -23.4375 191.96484375 C-23.95231934 193.16254395 -24.46713867 194.36024414 -24.99755859 195.59423828 C-28.5999977 203.86817527 -32.51918645 211.93176345 -36.625 219.96484375 C-36.00238281 220.26390625 -35.37976562 220.56296875 -34.73828125 220.87109375 C-32.625 221.96484375 -32.625 221.96484375 -30.8125 223.46484375 C-28.57328751 225.20223287 -28.57328751 225.20223287 -25.1875 225.71484375 C-20.33033202 227.41911322 -19.26746577 229.64080886 -16.625 233.96484375 C-9.2615084 233.64139812 -5.0215366 231.92941838 0.96875 227.75 C1.75914673 227.22023056 2.54954346 226.69046112 3.3638916 226.14463806 C5.87888362 224.45491068 8.37733421 222.74255281 10.875 221.02734375 C14.15121426 218.80239895 17.43377533 216.5869861 20.71875 214.375 C21.92795609 213.55854759 21.92795609 213.55854759 23.16159058 212.7256012 C31.03103784 207.44951137 39.14758871 202.65627475 47.375 197.96484375 C48.71546387 197.18935181 48.71546387 197.18935181 50.08300781 196.39819336 C58.38407141 191.61185482 66.8286279 187.11008902 75.4375 182.90234375 C76.19853027 182.52005615 76.95956055 182.13776855 77.74365234 181.74389648 C83.5819134 178.95649452 89.39014362 177.23128205 95.87890625 178.42578125 C98.41271221 179.55084879 100.90107122 180.7112535 103.375 181.96484375 C103.94605469 182.25117676 104.51710938 182.53750977 105.10546875 182.83251953 C130.7307797 195.880208 155.08670028 215.96271771 166.375 242.96484375 C173.81668174 266.51764119 156.29511867 292.33390419 145.98852539 312.60717773 C131.31518387 341.48734355 118.65068871 371.15880705 108.7421875 402.01953125 C108.22433357 403.62642306 107.70610515 405.23319423 107.1875 406.83984375 C106.93170166 407.64010986 106.67590332 408.44037598 106.41235352 409.26489258 C104.44796562 415.21647672 102.1708072 421.00508198 99.78515625 426.796875 C92.28615146 445.04374385 85.64095912 462.20851269 83.375 481.96484375 C83.25382812 482.99770508 83.13265625 484.03056641 83.0078125 485.09472656 C80.62298155 506.52508249 80.44593312 528.08743556 83.94140625 549.421875 C84.30079426 552.35849594 84.35416739 554.91079635 84.2734375 557.84765625 C84.20706064 565.63498947 85.64748761 573.20019431 87 580.83984375 C87.1347171 581.61152893 87.2694342 582.38321411 87.40823364 583.17828369 C91.41361575 611.0178583 91.41361575 611.0178583 105.12890625 634.671875 C108.12824769 636.6781459 110.42808477 636.9639285 114 636.90234375 C117.34051377 636.16510452 117.34051377 636.16510452 119.703125 634.40234375 C122.95948422 632.6503844 124.84031493 632.78006773 128.5 633.02734375 C145.08437039 633.3065419 157.95197397 621.87903771 169.375 610.9375 C178.66407339 601.82305629 187.13753678 592.15248412 194.99365234 581.78320312 C196.40696096 579.92277142 197.83729484 578.07635607 199.26953125 576.23046875 C221.72318692 547.06661022 239.6635807 514.29174448 255.625 481.21484375 C256.17414063 480.07829346 256.72328125 478.94174316 257.2890625 477.77075195 C259.3815765 473.39041396 259.3815765 473.39041396 261.375 468.96484375 C261.78959473 468.0730542 262.20418945 467.18126465 262.63134766 466.26245117 C263.71321446 461.46508579 262.75210513 457.40202601 261.8203125 452.625 C261.63991425 451.62585068 261.45951599 450.62670135 261.27365112 449.59727478 C260.69648162 446.40453297 260.10041091 443.2157909 259.5 440.02734375 C253.45537442 407.83958896 253.45537442 407.83958896 256.75 392.96484375 C257.02748506 391.61644749 257.30216248 390.26747081 257.57421875 388.91796875 C257.71005371 388.25732422 257.84588867 387.59667969 257.98583984 386.91601562 C259.53690309 379.13929202 260.50231685 371.57697141 260.21679688 363.66471863 C259.76869254 349.07909289 262.42892575 334.97948038 264.875 320.65234375 C265.52199678 316.79376302 266.16436108 312.93449216 266.80090332 309.07417297 C267.19465073 306.69345617 267.59493696 304.31380846 268.00280762 301.93547058 C269.73579002 291.80328101 269.73579002 291.80328101 268.375 281.71484375 C265.708669 270.46155959 268.03599133 258.48479408 269.3125 247.15234375 C270.97482886 232.20597861 272.55206406 217.33640158 272.5625 202.27734375 C272.57474609 201.33568359 272.58699219 200.39402344 272.59960938 199.42382812 C272.6156377 191.63940685 271.80666441 184.10076314 269.25 176.71484375 C268.14249163 173.23410315 267.89608596 170.59090723 268.375 166.96484375 C274.1942054 162.36734998 281.38182212 163.20561833 288.375 163.96484375 C312.4581166 167.66105349 334.93452938 178.09968023 353.375 193.96484375 C354.14328125 194.57714844 354.9115625 195.18945312 355.703125 195.8203125 C371.29794107 208.68338358 374.67908688 225.78557782 377.64453125 244.72265625 C377.93214926 246.52009326 378.22030114 248.31744493 378.50895691 250.11471558 C379.10805075 253.860431 379.69959255 257.60724136 380.28588867 261.35498047 C381.03465175 266.13621902 381.80408581 270.91386514 382.57941151 275.69085884 C383.17777109 279.393958 383.76422014 283.09887069 384.34726524 286.80440903 C384.62609713 288.56631363 384.90874931 290.3276184 385.19544411 292.08826065 C388.03442001 309.59487049 388.03442001 309.59487049 386.375 317.96484375 C386.24872726 318.68031372 386.12245453 319.39578369 385.99235535 320.13293457 C385.58550165 322.32890308 385.132052 324.51076938 384.66796875 326.6953125 C384.32523129 328.37869629 383.98441816 330.06247272 383.64526367 331.74658203 C383.37968155 333.06532318 383.37968155 333.06532318 383.10873413 334.41070557 C378.75342069 356.27073399 376.58561209 378.00693559 374.9808197 400.21644592 C374.43069123 407.66938389 373.61061082 415.05586977 372.625 422.46484375 C371.6192073 430.04712023 371.11447725 437.33138586 371.46484375 444.9765625 C371.36359953 448.34403334 370.51991423 450.80617966 369.375 453.96484375 C368.82190657 456.26984077 368.30199516 458.58300805 367.8125 460.90234375 C367.43931641 462.64837891 367.43931641 462.64837891 367.05859375 464.4296875 C365.65818873 471.67178202 365.16456276 478.60617031 365.125 485.96484375 C365.104375 486.92390625 365.08375 487.88296875 365.0625 488.87109375 C365.03043036 494.70776823 365.64180832 498.78616477 368.375 503.96484375 C392.02399325 497.21772464 408.33351631 459.10699728 419.3203125 439.48046875 C420.34001701 437.64274494 421.35819267 435.80417215 422.375 433.96484375 C422.92124023 432.98064453 423.46748047 431.99644531 424.03027344 430.98242188 C460.48886821 365.05330297 483.45496893 296.91959489 487.30004883 221.3425293 C488.56795764 197.43367103 488.56795764 197.43367103 494.375 188.96484375 C499.65382508 185.4830655 503.82001375 185.66609656 509.9296875 186.9140625 C521.15250444 190.33689442 531.32149945 196.6009545 540.375 203.96484375 C541.21417969 204.62871094 542.05335938 205.29257812 542.91796875 205.9765625 C557.78205921 218.4439624 566.32837521 234.77281953 568.375 253.96484375 C568.74817283 258.93457213 568.96699038 263.90302567 569.15625 268.8828125 C569.21508206 270.2746354 569.27471183 271.66642478 569.33508301 273.05818176 C569.52281357 277.42259716 569.69945956 281.78742368 569.875 286.15234375 C570.7811833 315.31785496 570.7811833 315.31785496 574.5 344.21484375 C579.06055415 373.14699929 572.14338453 402.90833051 566.00311279 431.07403564 C565.05252125 435.4490106 564.11336231 439.82643037 563.17292786 444.20359802 C559.60680281 460.79793184 556.00099289 477.383492 552.375 493.96484375 C552.12306885 495.11710449 551.8711377 496.26936523 551.61157227 497.45654297 C550.22819684 503.77936895 548.83966138 510.10102586 547.44326782 516.42098999 C547.03029873 518.29106926 546.61829435 520.1613619 546.20736694 522.03189087 C544.1056773 531.58911833 541.85922704 541.05967091 539.28344727 550.5012207 C537.86028482 555.92729049 536.73087056 561.40428919 535.625 566.90234375 C535.40457031 567.97935547 535.18414063 569.05636719 534.95703125 570.16601562 C534.42571508 572.76484474 533.89838261 575.36440754 533.375 577.96484375 C533.98794922 577.97942627 534.60089844 577.99400879 535.23242188 578.0090332 C574.21309176 579.04040283 607.33643393 591.74314286 636.375 617.96484375 C637.87362243 619.25810846 639.3734323 620.54999988 640.875 621.83984375 C643.84554351 624.41881561 646.60176094 627.17521923 649.375 629.96484375 C650.30957031 630.87621094 651.24414062 631.78757812 652.20703125 632.7265625 C658.42211105 638.80513805 664.17391454 644.97556584 669.375 651.96484375 C670.16519531 653.0115625 670.95539062 654.05828125 671.76953125 655.13671875 C697.14741392 689.30454144 709.95745447 730.10843687 703.8515625 772.54663086 C700.54335264 793.2682853 694.11613839 813.60653879 685.21875 832.609375 C683.2729171 836.91725148 682.34655133 841.14740204 681.5 845.77734375 C677.32619433 865.91725073 664.72997075 880.07393483 647.8984375 891.31640625 C639.30664492 896.89727567 630.3392752 901.77023828 621.328125 906.6328125 C603.96121042 915.97179142 603.96121042 915.97179142 588.875 928.52734375 C584.06066871 933.22131675 578.02120609 938.05450716 571.125 938.27734375 C566.42300774 938.19445607 563.93077877 937.1973699 560.375 933.96484375 C554.36310715 926.65213198 550.52959033 916.29815679 550.9765625 906.80859375 C551.59786854 903.93353051 553.02532954 902.62343467 555.375 900.96484375 C559.03626705 899.13421023 563.36066505 899.69084946 567.375 899.96484375 C569.05736471 900.59083992 570.7273962 901.25236643 572.375 901.96484375 C577.76632009 902.34376514 582.0380267 901.37038121 587 899.40234375 C587.69512695 899.13204346 588.39025391 898.86174316 589.10644531 898.58325195 C610.79304583 889.92398176 628.46980766 874.69036881 643.375 856.96484375 C643.83793457 856.43455566 644.30086914 855.90426758 644.77783203 855.35791016 C662.15378938 835.01693625 667.61434305 800.99254017 668.375 774.96484375 C668.41496094 773.75441406 668.45492187 772.54398438 668.49609375 771.296875 C668.8030529 753.00572118 666.07282057 736.34983903 660.375 718.96484375 C659.983125 717.75957031 659.59125 716.55429687 659.1875 715.3125 C652.49266021 696.50650906 639.8038536 676.81113075 623.9921875 664.4609375 C621.75185378 662.38835824 619.95777692 660.04275357 618.0625 657.65234375 C608.63777595 645.94997805 597.68782822 638.52992815 583.5 633.65234375 C582.80592041 633.40983887 582.11184082 633.16733398 581.39672852 632.91748047 C567.80720607 628.52775915 553.62453918 628.58245527 539.5 628.33984375 C537.63670261 628.30155904 535.77342092 628.2625017 533.91015625 628.22265625 C529.3985687 628.12782915 524.88689906 628.04339486 520.375 627.96484375 C520.26397949 628.61678711 520.15295898 629.26873047 520.03857422 629.94042969 C505.55426065 712.52001767 470.57184658 803.94724299 373.9753418 923.84057617 C354.76753946 937.01269129 335.17230353 940.19591688 312.3125 940.21484375 C311.21258728 940.21585587 311.21258728 940.21585587 310.0904541 940.21688843 C287.75465137 940.18424088 266.738344 936.7444154 249.75 920.90234375 C223.0670947 892.54877354 222.30208249 846.31175241 223.22265625 809.64990234 C225.22726197 761.16028908 246.45708283 715.2081936 275.375 676.96484375 C275.81021973 676.38686035 276.24543945 675.80887695 276.69384766 675.21337891 C289.15348711 658.76342671 303.44315832 643.12712259 319.375 629.96484375 C319.88627441 629.52914062 320.39754883 629.0934375 320.92431641 628.64453125 C343.4405862 609.46144776 376.91156833 583.4355388 408.1875 583.90234375 C409.37279297 583.91587891 409.37279297 583.91587891 410.58203125 583.9296875 C411.46955078 583.94708984 411.46955078 583.94708984 412.375 583.96484375 C412.42398438 582.99546875 412.47296875 582.02609375 412.5234375 581.02734375 C412.91482007 573.86702664 413.48288422 566.81481225 414.5 559.71484375 C415.57370313 551.97173793 415.25633717 544.75387442 413.84375 537.078125 C412.37860759 527.3471375 413.15272339 517.50872813 415.375 507.96484375 C411.77202582 512.42115392 408.74948471 516.97048529 405.93579102 521.94921875 C393.94228495 543.11671312 378.8131258 557.1623199 355.0625 564.33984375 C336.4094525 568.88328903 320.40495131 564.22723306 304.23828125 554.48046875 C287.74013496 544.03287673 274.88448885 529.35564582 270.375 509.96484375 C268.39540107 512.5294297 266.63560761 515.10274254 265.02734375 517.9140625 C264.59236572 518.67041992 264.1573877 519.42677734 263.70922852 520.20605469 C263.24830811 521.01333008 262.7873877 521.82060547 262.3125 522.65234375 C256.54018867 532.71394261 256.54018867 532.71394261 253.8515625 537.1875 C245.36882005 551.30428995 237.3302021 565.69887496 230.9921875 580.91796875 C224.42384598 596.6657983 218.03408242 610.20067018 206.375 622.96484375 C205.529375 623.93679688 204.68375 624.90875 203.8125 625.91015625 C201.70605671 628.30184707 199.54707168 630.63294039 197.375 632.96484375 C195.89563119 634.65216654 194.41646878 636.33967032 192.9375 638.02734375 C172.79704426 660.28967825 145.85232863 674.17701098 116.375 678.96484375 C115.63121094 679.09632813 114.88742187 679.2278125 114.12109375 679.36328125 C85.97600508 683.71137428 52.56628278 673.43393692 29.18359375 657.8359375 C22.54077718 652.95775164 16.3702157 647.61280675 10.375 641.96484375 C9.71113281 641.36542969 9.04726562 640.76601563 8.36328125 640.1484375 C-19.65455858 613.83553721 -33.1385822 572.67033741 -39.625 535.96484375 C-39.75632324 535.22959473 -39.88764648 534.4943457 -40.02294922 533.73681641 C-41.98975061 522.42426031 -41.96715144 511.64357412 -40.5 500.27734375 C-40.37310791 499.27058594 -40.24621582 498.26382812 -40.11547852 497.2265625 C-38.74276291 486.92149567 -36.80938826 476.72578434 -34.78271484 466.5324707 C-32.17026638 453.2211423 -30.4585932 440.1655272 -30.1875 426.58984375 C-29.11279606 393.26901129 -17.30600247 363.87697156 -3.87261963 333.76409912 C10.25483191 305.92838382 10.25483191 305.92838382 11.8046875 276.13671875 C11.23912784 273.27807177 11.73648342 271.06104334 12.3125 268.21484375 C12.50714844 267.23 12.70179688 266.24515625 12.90234375 265.23046875 C13.05832031 264.4828125 13.21429687 263.73515625 13.375 262.96484375 C12.66214844 263.38636719 11.94929688 263.80789063 11.21484375 264.2421875 C5.91245307 267.27518352 1.59854943 269.73853286 -4.625 269.96484375 C-5.32496094 270.02542969 -6.02492188 270.08601563 -6.74609375 270.1484375 C-18.34628191 270.77701912 -29.78071091 266.11758658 -40.40625 261.91796875 C-44.04755974 260.83971684 -46.84902988 260.54229471 -50.625 260.96484375 C-52.49970967 262.37870637 -52.49970967 262.37870637 -53.625 264.58984375 C-54.10582031 265.40710938 -54.58664062 266.224375 -55.08203125 267.06640625 C-55.59121094 268.02289063 -56.10039063 268.979375 -56.625 269.96484375 C-57.22699219 271.08632813 -57.82898437 272.2078125 -58.44921875 273.36328125 C-62.60997029 281.31097955 -66.00334254 289.00780949 -67.4375 297.90234375 C-68.33500724 302.83479807 -70.41310505 306.40912027 -73.1875 310.54296875 C-74.8108044 313.27788377 -75.6255509 315.94632408 -76.625 318.96484375 C-82.93504164 334.46605621 -89.9933568 349.61802997 -98.625 363.96484375 C-99.1317627 364.80740723 -99.63852539 365.6499707 -100.16064453 366.51806641 C-109.05334633 381.21628318 -118.17242956 395.79725231 -128.6640625 409.41796875 C-129.83912509 410.94414566 -130.98925848 412.49077845 -132.0859375 414.07421875 C-133.3125 415.77734375 -133.3125 415.77734375 -135.625 417.96484375 C-138.6875 418.21484375 -138.6875 418.21484375 -141.625 416.96484375 C-147.61249617 410.63520494 -148.93841007 400.80236497 -148.871521 392.36039734 C-148.46032452 388.3646193 -146.79117178 385.25465935 -144.890625 381.765625 C-144.50162018 381.01716812 -144.11261536 380.26871124 -143.71182251 379.49757385 C-142.45024958 377.08123898 -141.16312175 374.67961353 -139.875 372.27734375 C-138.99083133 370.59536138 -138.10819124 368.91257464 -137.22705078 367.22900391 C-132.75322861 358.70970752 -128.16554942 350.25558709 -123.5 341.83984375 C-94.97753542 294.47545594 -94.97753542 294.47545594 -85.625 242.96484375 C-89.86817548 231.86588256 -100.30148658 221.70549901 -108.1875 212.96484375 C-128.80874522 189.76594288 -128.80874522 189.76594288 -131.1953125 175.93359375 C-131.78274543 173.24208285 -133.12417251 171.24871168 -134.625 168.96484375 C-145.59004661 134.28084435 -131.03145834 83.26535636 -115.625 51.96484375 C-115.28742676 51.27197266 -114.94985352 50.57910156 -114.60205078 49.86523438 C-107.44699644 35.33900048 -98.81243436 22.7031745 -87.625 10.96484375 C-87.08875 10.35382813 -86.5525 9.7428125 -86 9.11328125 C-64.03057154 -14.94324292 -25.92506614 -20.09964205 0 0 Z M-38.625 75.96484375 C-57.77086937 97.38110825 -72.17580219 129.19526758 -71.90234375 158.12109375 C-70.97142052 171.022903 -65.57466789 184.54714776 -59.625 195.96484375 C-58.965 195.96484375 -58.305 195.96484375 -57.625 195.96484375 C-33.52947241 141.0303353 -33.52947241 141.0303353 -24.3125 82.52734375 C-24.29638672 81.65658203 -24.28027344 80.78582031 -24.26367188 79.88867188 C-24.25283706 74.92680394 -24.25283706 74.92680394 -26.01953125 70.3671875 C-30.32991338 66.60215786 -35.39633595 73.00481266 -38.625 75.96484375 Z M331.375 666.96484375 C330.51132813 667.82851563 329.64765625 668.6921875 328.7578125 669.58203125 C327.38131087 670.95853288 325.98936541 672.32062275 324.55859375 673.640625 C313.31674987 684.17828179 304.82943809 697.58428333 297.375 710.96484375 C296.94864258 711.71797852 296.52228516 712.47111328 296.08300781 713.24707031 C278.58990045 744.36691789 265.39333513 781.91992597 265.171875 818.0234375 C265.16617493 818.77085709 265.16047485 819.51827667 265.15460205 820.28834534 C265.1452162 821.86400976 265.13864384 823.43969325 265.13476562 825.01538086 C265.12515096 827.36544457 265.09410466 829.71459716 265.0625 832.06445312 C264.95518405 847.09964474 267.44481155 861.02093055 271.8125 875.40234375 C272.24272461 876.87864258 272.24272461 876.87864258 272.68164062 878.38476562 C277.52771009 894.97394711 277.52771009 894.97394711 289.75 906.40234375 C293.29154935 908.21584489 295.09388615 908.96015852 299.125 909.02734375 C312.82376176 904.5489024 319.08111116 896.61605682 325.47119141 884.0871582 C326.76899662 881.488776 328.05474455 878.8873451 329.2875824 876.25741577 C330.01689284 874.71983102 330.76654678 873.19174339 331.53544617 871.67356873 C334.96231648 864.64914625 336.90499959 857.65537048 338.56113243 850.03375244 C339.02650181 847.89696598 339.50851494 845.76449241 339.99458313 843.63232422 C341.37204424 837.57661103 342.72083326 831.51462946 344.05932617 825.45019531 C348.22998476 806.60135733 353.07923863 788.70154802 360.27352905 770.72976685 C361.76912733 766.97550149 363.17085514 763.18928368 364.5703125 759.3984375 C367.45403623 751.7290239 370.38296048 744.07722953 373.32583618 736.43035889 C374.27979928 733.94985952 375.23114855 731.46836713 376.18237305 728.98681641 C379.67528584 719.88865378 383.22089657 710.8144227 386.83984375 701.765625 C387.93461977 699.0136382 389.02839953 696.26125748 390.12188721 693.50875854 C390.82370705 691.75099309 391.53041676 689.99517091 392.24237061 688.2414856 C396.197563 678.49713349 399.37324606 669.51930338 400.375 658.96484375 C400.65788755 656.63139303 400.94176924 654.29806265 401.2265625 651.96484375 C401.48723463 649.63182815 401.74504192 647.2984907 402 644.96484375 C402.1340625 643.77761719 402.268125 642.59039063 402.40625 641.3671875 C402.53257812 640.22378906 402.65890625 639.08039062 402.7890625 637.90234375 C402.9020166 636.88011719 403.0149707 635.85789062 403.13134766 634.8046875 C403.35711812 632.17326259 403.42039988 629.60409008 403.375 626.96484375 C377.74343593 626.96484375 348.69423468 650.16183067 331.375 666.96484375 Z " fill="#07BBB5" transform="translate(1097.625,243.03515625)"/>
<path d="M0 0 C8.57268442 6.28035488 15.12894513 13.49545412 17.125 24.1875 C13.54228224 24.3618959 9.96065398 24.46837658 6.375 24.5625 C4.85132813 24.63791016 4.85132813 24.63791016 3.296875 24.71484375 C0.4559068 24.77091549 -2.08944837 24.75620727 -4.875 24.1875 C-7.390625 21.30859375 -7.390625 21.30859375 -8.875 18.1875 C-15.17711705 13.32961811 -21.03317685 12.1904682 -28.875 13.1875 C-36.50607093 15.81476871 -40.89345854 19.2978075 -44.5625 26.5 C-47.44293272 34.5926443 -47.51473415 41.58054589 -43.8359375 49.39453125 C-40.53947997 55.12611386 -36.792954 58.0090955 -30.625 60.5 C-23.71619136 61.76661492 -16.77022963 61.24865819 -10.875 57.1875 C-10.48570312 56.53523437 -10.09640625 55.88296875 -9.6953125 55.2109375 C-7.92012237 52.37263915 -6.77000811 50.95667162 -3.875 49.1875 C3.03623122 48.11929691 10.17708342 48.70195819 17.125 49.1875 C16.36992805 55.51009043 13.7939412 59.14857053 10.125 64.1875 C9.5475 65.05375 8.97 65.92 8.375 66.8125 C0.25425553 75.38439694 -9.76408515 80.19256353 -21.50756836 80.65844727 C-34.82420127 80.82186681 -44.86146736 77.26036745 -54.875 68.1875 C-63.80673372 58.02690358 -68.26368778 47.86321999 -68.08203125 34.37109375 C-67.30204655 22.37698939 -61.58342923 11.8955512 -52.80859375 3.74609375 C-37.31080967 -8.74605947 -17.13896716 -10.85370925 0 0 Z " fill="#07BBB5" transform="translate(358.875,923.8125)"/>
<path d="M0 0 C1.48831242 0.00667405 2.97660807 0.01863442 4.46484375 0.03515625 C5.22345703 0.03966797 5.98207031 0.04417969 6.76367188 0.04882812 C8.64326246 0.06064945 10.52281274 0.07858547 12.40234375 0.09765625 C16.33401558 7.58092423 19.56781462 15.23253568 22.65234375 23.09765625 C23.6916297 25.73011117 24.73427184 28.36123073 25.77734375 30.9921875 C26.05572083 31.69535599 26.3340979 32.39852448 26.62091064 33.1230011 C29.03096481 39.19653671 31.49351757 45.24805188 33.96484375 51.296875 C34.74840755 53.21808462 35.53193623 55.13930856 36.31542969 57.06054688 C37.48130154 59.91888394 38.64879089 62.77650429 39.82141113 65.63208008 C40.92075342 68.31013653 42.01370476 70.99072199 43.10546875 73.671875 C43.43925537 74.47993088 43.77304199 75.28798676 44.11694336 76.12052917 C46.40234375 81.75649631 46.40234375 81.75649631 46.40234375 85.09765625 C39.47234375 85.09765625 32.54234375 85.09765625 25.40234375 85.09765625 C23.42234375 79.81765625 21.44234375 74.53765625 19.40234375 69.09765625 C9.50234375 69.09765625 -0.39765625 69.09765625 -10.59765625 69.09765625 C-12.57765625 74.37765625 -14.55765625 79.65765625 -16.59765625 85.09765625 C-23.52765625 85.09765625 -30.45765625 85.09765625 -37.59765625 85.09765625 C-36.80200402 81.11939508 -35.89984125 78.05448773 -34.40234375 74.34765625 C-33.94093994 73.19958496 -33.47953613 72.05151367 -33.00415039 70.86865234 C-32.4937664 69.61160733 -31.98326491 68.35461002 -31.47265625 67.09765625 C-30.94293351 65.78480691 -30.41356327 64.4718153 -29.88452148 63.15869141 C-28.43883283 59.57399897 -26.98735193 55.99167715 -25.534729 52.40979004 C-24.23579492 49.20479941 -22.94022066 45.99845407 -21.64447021 42.79217529 C-17.64161162 32.88883006 -13.63652532 22.98638015 -9.59765625 13.09765625 C-9.34216003 12.47121216 -9.08666382 11.84476807 -8.82342529 11.19934082 C-8.12484081 9.48974854 -7.42193716 7.78192301 -6.71875 6.07421875 C-6.33001709 5.12885254 -5.94128418 4.18348633 -5.54077148 3.20947266 C-4.0050161 -0.22937903 -4.11708572 0.11175586 0 0 Z M3.40234375 26.09765625 C0.43234375 34.67765625 -2.53765625 43.25765625 -5.59765625 52.09765625 C0.67234375 52.09765625 6.94234375 52.09765625 13.40234375 52.09765625 C12.34181571 46.79501603 10.74084832 41.94055734 8.96484375 36.84765625 C8.49594727 35.46320312 8.49594727 35.46320312 8.01757812 34.05078125 C7.5602832 32.7359375 7.5602832 32.7359375 7.09375 31.39453125 C6.81732666 30.59370117 6.54090332 29.79287109 6.25610352 28.96777344 C5.55402988 26.9118653 5.55402988 26.9118653 3.40234375 26.09765625 Z " fill="#07BBB5" transform="translate(535.59765625,917.90234375)"/>
<path d="M0 0 C16.5 0 33 0 50 0 C50 6.27 50 12.54 50 19 C40.1 19 30.2 19 20 19 C20 23.95 20 28.9 20 34 C29.57 34 39.14 34 49 34 C49 39.94 49 45.88 49 52 C39.43 52 29.86 52 20 52 C20 56.95 20 61.9 20 67 C29.9 67 39.8 67 50 67 C50 72.94 50 78.88 50 85 C33.5 85 17 85 0 85 C0 56.95 0 28.9 0 0 Z " fill="#07BBB5" transform="translate(888,918)"/>
<path d="M0 0 C16.17 0 32.34 0 49 0 C49 6.27 49 12.54 49 19 C39.43 19 29.86 19 20 19 C20 23.95 20 28.9 20 34 C29.24 34 38.48 34 48 34 C48 39.94 48 45.88 48 52 C38.76 52.33 29.52 52.66 20 53 C20 63.56 20 74.12 20 85 C13.4 85 6.8 85 0 85 C0 56.95 0 28.9 0 0 Z " fill="#07BBB5" transform="translate(708,918)"/>
<path d="M0 0 C5.71029918 1.81438356 9.54297317 4.84768389 12.9375 9.7734375 C14.69412329 13.4545966 14.81426126 17.03047635 14 21 C13.34 21.99 12.68 22.98 12 24 C9.0280615 22.87548273 6.66559313 21.77706209 4 20 C4.020625 19.05125 4.04125 18.1025 4.0625 17.125 C4.30608219 13.91628536 4.30608219 13.91628536 2.1875 11.625 C0.05279952 9.701838 0.05279952 9.701838 -3 10 C-2.46006523 14.21449082 -1.09386663 16.54762191 1.5 19.875 C4.4335002 23.95770647 6.29430372 26.8006342 6 32 C4.60785929 36.08304683 2.73596803 38.46475052 -0.75 41 C-4.87011996 42.26772922 -7.87907104 42.21398108 -12 41 C-16.32938266 38.62308403 -19.70954513 35.67756721 -23 32 C-23 31.34 -23 30.68 -23 30 C-23.66 30 -24.32 30 -25 30 C-26.21260877 26.36217368 -26.39544552 23.82264001 -26 20 C-23.5 17.0625 -23.5 17.0625 -21 15 C-16.76435496 17.91200597 -16.76435496 17.91200597 -15 20 C-14.875 23.5625 -14.875 23.5625 -15 27 C-12.81907617 30.18750407 -11.52571704 30.87868068 -7.75 31.75 C-6.38875 31.87375 -6.38875 31.87375 -5 32 C-7.33134772 26.13906997 -9.83729004 21.72523833 -14 17 C-15.26255071 13.21234787 -15.5979818 10.98654536 -15 7 C-10.9797398 1.74509137 -6.76590711 -1.32901747 0 0 Z " fill="#07BBB5" transform="translate(1781,790)"/>
<path d="M0 0 C3 2.5 3 2.5 5 5 C5 5.66 5 6.32 5 7 C6.216875 7.061875 7.43375 7.12375 8.6875 7.1875 C11.93413189 7.61923296 13.11545198 8.0786056 15.9375 10 C18.66839913 13.97221692 19.27883672 17.21752772 19 22 C17.73724492 25.93682468 16.40483097 27.6422424 13.3125 30.375 C9.41975567 32.28464816 6.21665773 32.99263733 2 32 C0.10616607 30.82549784 -1.55573426 29.50552023 -3.28125 28.09765625 C-6.01477813 26.35192578 -8.83178541 26.9423961 -12 27 C-16.33682792 24.7481855 -19.16927416 22.57681459 -21 18 C-21.70702243 13.28651715 -21.49302322 9.96778633 -19.3125 5.6875 C-13.45007333 -1.12559046 -8.66458598 -3.53446478 0 0 Z M-10 9 C-10.66 10.65 -11.32 12.3 -12 14 C-10.68 15.32 -9.36 16.64 -8 18 C-6.35 17.34 -4.7 16.68 -3 16 C-2.95745644 14.00045254 -2.95919217 11.99958364 -3 10 C-4.12534105 8.64381501 -4.12534105 8.64381501 -7.0625 8.9375 C-8.031875 8.958125 -9.00125 8.97875 -10 9 Z M4 17 C3.67 17.99 3.34 18.98 3 20 C3.99 21.485 3.99 21.485 5 23 C6.98491642 22.73323796 6.98491642 22.73323796 9 22 C9.33 21.01 9.66 20.02 10 19 C9.67 18.34 9.34 17.68 9 17 C7.35 17 5.7 17 4 17 Z " fill="#07BBB5" transform="translate(1843,1084)"/>
<path d="M0 0 C4.91481845 2.47938963 8.0824593 5.74868895 11.125 10.3125 C11.98196087 14.96715064 11.70826251 19.09789379 9.125 23.125 C5.09548826 28.00342573 -0.09817062 30.21744913 -6.25 31.25 C-13.67520822 31.74842189 -19.77757968 29.58300427 -25.4375 24.8125 C-28.3415393 22.14802933 -29.64589104 20.28433939 -30.11328125 16.26171875 C-30.24138893 12.3578057 -30.04089868 9.70462414 -28.5 6.0625 C-20.7605797 -2.04546413 -10.3798064 -4.20012067 0 0 Z M-19.875 10.3125 C-21.04477494 12.66122531 -21.04477494 12.66122531 -20.875 15.3125 C-19.14135169 18.43306696 -18.31504627 19.16581791 -14.875 20.3125 C-12.7334021 20.48282265 -10.58536073 20.57867837 -8.4375 20.625 C-6.73787109 20.68107422 -6.73787109 20.68107422 -5.00390625 20.73828125 C-1.78321367 20.5684882 -1.78321367 20.5684882 0.53515625 18.421875 C2.33190012 16.4782244 2.33190012 16.4782244 2.125 14.25 C0.31872553 10.75034321 -2.22957424 9.52764192 -5.875 8.3125 C-10.66431666 7.92684342 -15.73389792 7.59490176 -19.875 10.3125 Z " fill="#07BBB5" transform="translate(1874.875,997.6875)"/>
<path d="M0 0 C5.47361889 0.5439085 9.58317001 2.55393801 14.375 5.0625 C15.11105469 5.43955078 15.84710937 5.81660156 16.60546875 6.20507812 C18.40739646 7.12944364 20.20423099 8.06372614 22 9 C21.45276317 12.37462715 20.9451 14.08235 19 17 C14.15340923 16.40895235 10.39251833 15.02055843 6 13 C5.34 14.65 4.68 16.3 4 18 C5.3303125 18.433125 5.3303125 18.433125 6.6875 18.875 C9.50382424 19.83148748 12.25083156 20.86798946 15 22 C14.44271087 25.34373475 13.64826111 28.03312999 12 31 C7.14036821 30.39254603 3.2594482 28.27241033 -1 26 C-1.66 27.98 -2.32 29.96 -3 32 C-2.13375 32.268125 -1.2675 32.53625 -0.375 32.8125 C2.91791964 33.97111987 5.91127875 35.38209839 9 37 C7.125 42.75 7.125 42.75 6 45 C0.93959451 44.36111113 -3.28011534 42.13720723 -7.8125 39.9375 C-8.60076172 39.56044922 -9.38902344 39.18339844 -10.20117188 38.79492188 C-12.13652473 37.86829839 -14.06859549 36.93482533 -16 36 C-15.25381027 32.27189291 -13.7345701 29.05984828 -12.12890625 25.625 C-11.84651596 25.01865723 -11.56412567 24.41231445 -11.2731781 23.78759766 C-10.37291789 21.85683793 -9.46771986 19.92843859 -8.5625 18 C-7.95737037 16.70327052 -7.35254941 15.40639694 -6.74804688 14.109375 C-2.0323982 4.00737366 -2.0323982 4.00737366 0 0 Z " fill="#07BBB5" transform="translate(1728,760)"/>
<path d="M0 0 C5.2518167 -0.315109 8.54814877 0.1310292 13 3 C16.80627154 6.70339933 17.90856463 9.69674832 18 15 C16.76475684 19.28702037 15.63397713 21.45247429 12.25 24.375 C8.10651181 26.4467441 4.65838992 27.64095567 0.0234375 26.5234375 C-4.62563426 24.88997985 -8.79279355 22.5418539 -13 20 C-12.67 23.3 -12.34 26.6 -12 30 C-14.97 30.33 -17.94 30.66 -21 31 C-21.67511469 27.2931535 -22.33858041 23.58431256 -23 19.875 C-23.19078125 18.82828125 -23.3815625 17.7815625 -23.578125 16.703125 C-23.75859375 15.68476562 -23.9390625 14.66640625 -24.125 13.6171875 C-24.29257813 12.68503418 -24.46015625 11.75288086 -24.6328125 10.79248047 C-25.0221472 7.8315694 -25.06158415 4.98298238 -25 2 C-22.87222463 3.03629406 -20.74730419 4.0775867 -18.625 5.125 C-17.98812256 5.43904785 -17.35124512 5.7530957 -16.69506836 6.07666016 C-12.85079063 7.99807378 -9.19167531 10.06399501 -5.5625 12.375 C-1.6033873 14.83553946 1.35469041 15.79803002 6 16 C6.5534764 13.92446352 7 12.15634036 7 10 C5.35 10 3.7 10 2 10 C0 3.375 0 3.375 0 0 Z " fill="#07BBB5" transform="translate(1866,944)"/>
<path d="M0 0 C1.23155368 1.53340507 2.38384605 3.13066189 3.5 4.75 C5.81733889 8.04890049 8.13728756 11.22164078 10.78515625 14.26171875 C11.24664063 14.79249023 11.708125 15.32326172 12.18359375 15.87011719 C13.51052162 17.37841693 14.85071345 18.87501605 16.19140625 20.37109375 C18 23 18 23 17.90625 25.23828125 C16.71419092 27.555603 15.16530345 28.60303003 13 30 C9.17497835 28.44165785 6.85216179 25.92784104 4 23 C1.45781116 25.06185704 -1.08365434 27.12460383 -3.625 29.1875 C-4.33785156 29.76564453 -5.05070312 30.34378906 -5.78515625 30.93945312 C-9.88088996 34.26488829 -13.95542596 37.61250976 -18 41 C-21.35435922 39.61198929 -23.11290303 38.11371 -25 35 C-25 34.01 -25 33.02 -25 32 C-23.05757983 30.28274445 -21.15267907 28.76682834 -19.0625 27.25 C-17.87221351 26.36222357 -16.68211039 25.47420123 -15.4921875 24.5859375 C-14.90147461 24.14991211 -14.31076172 23.71388672 -13.70214844 23.26464844 C-11.3344703 21.50553014 -9.01011686 19.69302278 -6.6875 17.875 C-5.61048828 17.03582031 -5.61048828 17.03582031 -4.51171875 16.1796875 C-4.01285156 15.79039062 -3.51398438 15.40109375 -3 15 C-4.2632842 11.64405806 -5.25915079 9.36709704 -8 7 C-6.47663111 3.31852519 -4.31953005 0 0 0 Z " fill="#07BBB5" transform="translate(1821,824)"/>
<path d="M0 0 C6.01312583 0.60544059 11.5740974 1.82758162 17.375 3.5 C18.58349609 3.83837891 18.58349609 3.83837891 19.81640625 4.18359375 C25.69600627 5.84800314 25.69600627 5.84800314 28 7 C28.33 5.68 28.66 4.36 29 3 C31.31 3.33 33.62 3.66 36 4 C36.85298376 7.67387495 37.10789471 11.0447393 37.0625 14.8125 C37.05347656 15.78832031 37.04445313 16.76414062 37.03515625 17.76953125 C37.02355469 18.50558594 37.01195312 19.24164062 37 20 C23.9688712 16.78477229 10.98277633 13.40457421 -2 10 C-1.34 6.7 -0.68 3.4 0 0 Z " fill="#07BBB5" transform="translate(1839,1049)"/>
<path d="M0 0 C2 3 2 3 1.625 6.1875 C1.41875 7.115625 1.2125 8.04375 1 9 C-0.98 9.66 -2.96 10.32 -5 11 C-6.65 9.35 -8.3 7.7 -10 6 C-9.39816251 3.97954558 -8.72693904 1.97888961 -8 0 C-5.06791253 -1.46604374 -3.11702298 -0.77925574 0 0 Z " fill="#06BBB5" transform="translate(1829,888)"/>
</svg>
